<svg xmlns="http://www.w3.org/2000/svg" stroke-miterlimit="10" font-weight="400" font-size="12" width="323.437" height="276.75" font-family="Dialog" color-interpolation="auto" stroke="#000" stroke-linecap="square"><path d="M34.594 276.75q-13.219 0-20.25-2.531-7.032-2.532-10.688-7.453Q0 261.844 0 255.937q0-3.093 1.547-8.578 1.547-5.484 6.047-13.922L131.906 25.313q3.938-6.468 9.14-13.359 5.204-6.89 10.829-9.422Q157.5 0 161.719 0q4.218 0 9.843 2.531t10.829 9.422q5.203 6.89 9.14 13.36l124.313 208.125q4.5 8.437 6.047 13.921 1.546 5.485 1.546 8.578 0 5.907-3.656 10.829-3.656 4.921-10.687 7.453-7.032 2.531-20.25 2.531zm0-14.625h254.25q7.593 0 10.968-1.547t5.625-4.36q2.25-2.812 1.829-7.03-.422-4.22-4.36-10.688L178.594 30.375q-2.813-4.64-5.274-8.156-2.46-3.516-5.343-5.274-2.883-1.757-6.258-1.757t-6.258 1.757q-2.883 1.758-5.344 5.344-2.46 3.586-5.273 8.086L20.53 238.5q-3.937 6.469-4.36 10.688-.421 4.218 1.829 7.03 2.25 2.813 5.625 4.36 3.375 1.547 10.969 1.547zm127.125-10.688q-5.344 0-9-2.109-3.657-2.11-5.766-5.765-2.11-3.657-2.11-9 0-5.344 2.11-9 2.11-3.657 5.766-5.766 3.656-2.11 9-2.11 5.343 0 9 2.11 3.656 2.11 5.765 5.765 2.11 3.657 2.11 9 0 5.344-2.11 9-2.109 3.657-5.765 5.766-3.657 2.11-9 2.11zm-5.625-51.75q-16.875-52.875-17.157-92.53V79.312q2.25-28.97 22.782-34.313 20.531 5.344 22.781 34.313v27.843q-.281 39.656-17.156 92.531z" stroke="none"/></svg>