<svg xmlns="http://www.w3.org/2000/svg" width="323.52" height="276.8"><path d="M28.96 262.173c-4.268-.597-7.777-2.289-10.223-4.93-3.651-3.944-3.745-8.218-.33-15.018C20.353 238.354 144.644 30.31 148.304 24.8c3.41-5.132 5.379-7.137 8.426-8.58 1.922-.912 2.457-1.02 5.031-1.02s3.109.108 5.031 1.02c3.81 1.804 5.927 4.26 11.526 13.38 9.958 16.216 125.755 210.542 126.996 213.12 2.052 4.26 2.637 7.124 2.008 9.821-.565 2.422-1.258 3.578-3.276 5.466-1.764 1.65-3.84 2.791-6.622 3.642-1.825.558-7.318.583-134.703.62-73.04.02-133.232-.023-133.76-.096zm139.393-11.907c4.311-1.628 7.772-5.203 9.097-9.4.645-2.04.79-3.16.79-6.095 0-5.717-1.15-8.948-4.336-12.185-3.305-3.358-6.322-4.471-12.144-4.478-3.067-.004-4.29.137-6.08.697-4.051 1.269-7.898 4.908-9.469 8.958-.566 1.459-.743 2.702-.858 6.043-.128 3.719-.06 4.492.592 6.687 1.536 5.176 6.237 9.445 11.454 10.403 2.673.491 8.941.13 10.954-.63zm.086-54.52c6.954-22.08 12.148-45.593 14.28-64.638 1.174-10.498 1.333-13.917 1.507-32.287.124-13.081.065-19.514-.203-22.08-1.375-13.175-6.026-22.497-13.906-27.87-2.437-1.662-6.684-3.418-8.282-3.426-1.587-.007-6.05 1.814-8.465 3.454-6.98 4.74-11.274 12.391-13.415 23.901-.54 2.902-.595 5.045-.59 23.04.006 20.315.159 24.053 1.45 35.438 2.166 19.12 7.305 42.336 14.272 64.482l1.132 3.6H167.3z"/></svg>