<svg xmlns="http://www.w3.org/2000/svg" height="276.8" width="323.52"><path d="M28.96 262.173c-4.268-.597-7.777-2.289-10.223-4.93-3.651-3.944-3.745-8.218-.33-15.018C20.353 238.354 144.644 30.31 148.304 24.8c3.41-5.132 5.379-7.137 8.426-8.58 1.922-.912 2.457-1.02 5.031-1.02s3.109.108 5.031 1.02c3.81 1.804 5.927 4.26 11.526 13.38 9.958 16.216 125.755 210.542 126.996 213.12 2.052 4.26 2.637 7.124 2.008 9.821-.565 2.422-1.258 3.578-3.276 5.466-1.764 1.65-3.84 2.791-6.622 3.642-1.825.558-7.318.583-134.703.62-73.04.02-133.232-.023-133.76-.096zm139.393-11.907c4.311-1.628 7.772-5.203 9.097-9.4.645-2.04.79-3.16.79-6.095 0-5.717-1.15-8.948-4.336-12.185-3.305-3.358-6.322-4.471-12.144-4.478-3.067-.004-4.29.137-6.08.697-4.051 1.269-7.898 4.908-9.469 8.958-.566 1.459-.743 2.702-.858 6.043-.128 3.719-.06 4.492.592 6.687 1.536 5.176 6.237 9.445 11.454 10.403 2.673.491 8.941.13 10.954-.63zm.086-54.52c6.954-22.08 12.148-45.593 14.28-64.638 1.174-10.498 1.333-13.917 1.507-32.287.124-13.081.065-19.514-.203-22.08-1.375-13.175-6.026-22.497-13.906-27.87-2.437-1.662-6.684-3.418-8.282-3.426-1.587-.007-6.05 1.814-8.465 3.454-6.98 4.74-11.274 12.391-13.415 23.901-.54 2.902-.595 5.045-.59 23.04.006 20.315.159 24.053 1.45 35.438 2.166 19.12 7.305 42.336 14.272 64.482l1.132 3.6H167.3z"/><path d="M156.117 198.538c-.48-1.254-3.575-11.566-4.788-15.951-5.323-19.244-8.98-37.794-10.733-54.436-.939-8.919-1.01-11.187-1.018-32.233-.008-22.51-.077-21.226 1.474-27.365 2.13-8.431 5.967-14.716 11.5-18.839 2.768-2.063 7.305-4.062 9.218-4.062 1.745 0 5.447 1.492 8.138 3.282.856.569 2.364 1.794 3.352 2.724 5.168 4.861 8.33 11.44 10.11 21.043l.606 3.268-.012 19.61c-.013 20.738-.11 23.563-1.135 33.248-2.117 19.98-7.178 43.338-14.458 66.72l-1.088 3.494-5.464.06-5.464.061-.238-.624zm1.599 52.32c-2.814-.552-5.545-2.024-7.685-4.14-2.599-2.572-3.994-5.294-4.475-8.73-.246-1.757.05-7.787.451-9.193.574-2.013 1.859-4.035 3.809-5.994 2.22-2.231 4.025-3.33 6.641-4.047 1.604-.439 2.198-.479 5.861-.393 3.71.087 4.236.151 5.855.71 2.307.796 3.757 1.777 5.832 3.95 3.08 3.223 4.037 6.042 4.026 11.86-.007 3.927-.262 5.174-1.638 7.983-1.726 3.525-5.397 6.56-9.097 7.522-1.558.405-8.245.735-9.58.472z" fill="#fff"/></svg>