<svg xmlns="http://www.w3.org/2000/svg" height="276.75" width="323.437" font-size="12" font-weight="400" stroke-miterlimit="10" font-family="Dialog" color-interpolation="auto" stroke="#000" stroke-linecap="square"><path d="M34.594 276.75q-13.219 0-20.25-2.531-7.032-2.532-10.688-7.453Q0 261.844 0 255.937q0-3.093 1.547-8.578 1.547-5.484 6.047-13.922L131.906 25.313q3.938-6.468 9.14-13.359 5.204-6.89 10.829-9.422Q157.5 0 161.719 0q4.218 0 9.843 2.531t10.829 9.422q5.203 6.89 9.14 13.36l124.313 208.125q4.5 8.437 6.047 13.921 1.546 5.485 1.546 8.578 0 5.907-3.656 10.829-3.656 4.921-10.687 7.453-7.032 2.531-20.25 2.531zm0-14.625h254.25q7.593 0 10.968-1.547t5.625-4.36q2.25-2.812 1.829-7.03-.422-4.22-4.36-10.688L178.594 30.375q-2.813-4.64-5.274-8.156-2.46-3.516-5.343-5.274-2.883-1.757-6.258-1.757t-6.258 1.757q-2.883 1.758-5.344 5.344-2.46 3.586-5.273 8.086L20.53 238.5q-3.937 6.469-4.36 10.688-.421 4.218 1.829 7.03 2.25 2.813 5.625 4.36 3.375 1.547 10.969 1.547zm127.125-10.688q-5.344 0-9-2.109-3.657-2.11-5.766-5.765-2.11-3.657-2.11-9 0-5.344 2.11-9 2.11-3.657 5.766-5.766 3.656-2.11 9-2.11 5.343 0 9 2.11 3.656 2.11 5.765 5.765 2.11 3.657 2.11 9 0 5.344-2.11 9-2.109 3.657-5.765 5.766-3.657 2.11-9 2.11zm-5.625-51.75q-16.875-52.875-17.157-92.53V79.312q2.25-28.97 22.782-34.313 20.531 5.344 22.781 34.313v27.843q-.281 39.656-17.156 92.531z" stroke="none"/><path d="M26.435 261.19c-3.932-.958-8.398-4.385-9.503-7.293-.795-2.09-.443-6.138.806-9.272 1.286-3.227 125.605-211.678 131.084-219.794 1.843-2.73 3.959-5.477 4.702-6.104 2.417-2.04 5.307-3.12 8.342-3.114 5.023.01 8.36 2.41 12.917 9.288 3.242 4.893 128.178 214.034 129.936 217.51 4.373 8.647 2.559 14.361-5.777 18.19l-2.118.973-134.11.072c-105.84.057-134.568-.04-136.279-.456zm143.17-11.16c3.524-1.648 5.972-4.101 7.66-7.671 1.255-2.659 1.33-3.095 1.318-7.692-.01-4.113-.17-5.268-1.019-7.412-1.212-3.06-4.745-6.78-7.78-8.193-4.27-1.988-11.741-1.948-16.184.086-6.463 2.96-9.928 10.268-8.72 18.393.599 4.023 1.607 6.296 3.894 8.777 3.64 3.95 7.476 5.36 13.987 5.144 3.49-.115 4.47-.32 6.844-1.431zm-.017-56.784c7.885-26.285 12.076-46.652 14.41-70.02.345-3.456.53-12.73.533-26.694.004-20.788-.023-21.525-.972-25.815-2.904-13.137-8.952-21.256-18.5-24.835-3.557-1.334-4.431-1.225-9.15 1.137-8.45 4.229-13.916 12.588-16.314 24.945-1.49 7.67-1.212 42.227.459 57.18 2.171 19.435 6.503 39.738 13.382 62.713 1.153 3.853 2.181 7.244 2.284 7.535.138.39 1.736.53 6.027.528l5.84-.002 2-6.672z" fill="#fff" stroke-width=".424"/></svg>