<svg xmlns="http://www.w3.org/2000/svg" width="415.145" height="362.434" viewBox="0 0 109.84 95.894"><path d="M109.441 91.498L57.466 1.465A2.935 2.935 0 0054.92 0a2.977 2.977 0 00-2.546 1.465L.398 91.498a2.894 2.894 0 000 2.93 2.937 2.937 0 002.546 1.466h103.953a2.97 2.97 0 002.545-1.466 2.891 2.891 0 000-2.93z" fill="#010101"/><path d="M61.878 79.6A6.939 6.939 0 1148 79.6a6.938 6.938 0 016.94-6.938 6.936 6.936 0 016.938 6.938zM54.94 30.878c-3.783 0-6.827 3.109-6.827 6.97l2.018 24.415c.385 3.158.714 4.948 2.018 5.789a6.689 6.689 0 002.79.607c.99 0 1.93-.217 2.777-.603 1.311-.84 1.645-2.631 2.03-5.796l2.02-24.415c-.002-3.858-3.045-6.967-6.827-6.967z" fill="#FFF"/></svg>