<?xml version="1.0" encoding="UTF-8" standalone="no"?>
<svg
   xmlns:dc="http://purl.org/dc/elements/1.1/"
   xmlns:cc="http://creativecommons.org/ns#"
   xmlns:rdf="http://www.w3.org/1999/02/22-rdf-syntax-ns#"
   xmlns:svg="http://www.w3.org/2000/svg"
   xmlns="http://www.w3.org/2000/svg"
   xmlns:sodipodi="http://sodipodi.sourceforge.net/DTD/sodipodi-0.dtd"
   xmlns:inkscape="http://www.inkscape.org/namespaces/inkscape"
   inkscape:version="1.0beta2 (2b71d25, 2019-12-03)"
   style="font-style:normal;font-weight:normal;font-size:12px;font-family:Dialog;color-interpolation:auto;fill:#000000;fill-opacity:1;stroke:#000000;stroke-width:1;stroke-linecap:square;stroke-linejoin:miter;stroke-miterlimit:10;stroke-dasharray:none;stroke-dashoffset:0;stroke-opacity:1;color-rendering:auto;image-rendering:auto;shape-rendering:auto;text-rendering:auto"
   height="276.75"
   width="323.43741"
   sodipodi:docname="ANSI-Z535_black_filled_white.svg"
   id="svg9"
   version="1.1"
   font-size="12"
   font-style="normal"
   font-weight="normal"
   stroke-miterlimit="10">
  <metadata
     id="metadata13">
    <rdf:RDF>
      <cc:Work
         rdf:about="">
        <dc:format>image/svg+xml</dc:format>
        <dc:type
           rdf:resource="http://purl.org/dc/dcmitype/StillImage" />
        <dc:title />
      </cc:Work>
    </rdf:RDF>
  </metadata>
  <sodipodi:namedview
     inkscape:document-rotation="0"
     inkscape:current-layer="svg9"
     inkscape:window-maximized="0"
     inkscape:window-y="23"
     inkscape:window-x="0"
     inkscape:cy="200.0911"
     inkscape:cx="36.7812"
     inkscape:zoom="2.36"
     fit-margin-bottom="0"
     fit-margin-right="0"
     fit-margin-left="0"
     fit-margin-top="0"
     showgrid="false"
     id="namedview11"
     inkscape:window-height="1209"
     inkscape:window-width="1600"
     inkscape:pageshadow="2"
     inkscape:pageopacity="0"
     guidetolerance="10"
     gridtolerance="10"
     objecttolerance="10"
     borderopacity="1"
     bordercolor="#666666"
     pagecolor="#ffffff" />
  <!--Unicode Character 'WARNING SIGN' (U+26A0)-->
  <defs
     id="genericDefs" />
  <g
     transform="translate(-13.2188,-120.375)"
     id="g7">
    <g
       id="g5">
      <path
         style="stroke:none"
         inkscape:connector-curvature="0"
         id="path3"
         d="m 47.8125,397.125 q -13.2187,0 -20.25,-2.5312 -7.0313,-2.5313 -10.6875,-7.4532 -3.6562,-4.9218 -3.6562,-10.8281 0,-3.0937 1.5468,-8.5781 1.5469,-5.4844 6.0469,-13.9219 L 145.125,145.6875 q 3.9375,-6.4687 9.1406,-13.3594 5.2032,-6.8906 10.8282,-9.4219 5.625,-2.5312 9.8437,-2.5312 4.2187,0 9.8437,2.5312 5.625,2.5313 10.8282,9.4219 5.2031,6.8907 9.1406,13.3594 l 124.3125,208.125 q 4.5,8.4375 6.0469,13.9219 1.5468,5.4844 1.5468,8.5781 0,5.9063 -3.6562,10.8281 -3.6562,4.9219 -10.6875,7.4532 -7.0313,2.5312 -20.25,2.5312 z m 0,-14.625 h 254.25 q 7.5937,0 10.9687,-1.5469 3.375,-1.5469 5.625,-4.3593 2.25,-2.8126 1.8282,-7.0313 -0.4219,-4.2187 -4.3594,-10.6875 L 191.8125,150.75 q -2.8125,-4.6406 -5.2734,-8.1562 -2.461,-3.5157 -5.3438,-5.2735 -2.8828,-1.7578 -6.2578,-1.7578 -3.375,0 -6.2578,1.7578 -2.8828,1.7578 -5.3438,5.3438 -2.4609,3.5859 -5.2734,8.0859 L 33.75,358.875 q -3.9375,6.4688 -4.3594,10.6875 -0.4218,4.2187 1.8282,7.0313 2.25,2.8124 5.625,4.3593 3.375,1.5469 10.9687,1.5469 z m 127.125,-10.6875 q -5.3437,0 -9,-2.1094 -3.6563,-2.1093 -5.7656,-5.7656 -2.1094,-3.6563 -2.1094,-9 0,-5.3437 2.1094,-9 2.1093,-3.6563 5.7656,-5.7656 3.6563,-2.1094 9,-2.1094 5.3437,0 9,2.1094 3.6563,2.1093 5.7656,5.7656 2.1094,3.6563 2.1094,9 0,5.3437 -2.1094,9 -2.1093,3.6563 -5.7656,5.7656 -3.6563,2.1094 -9,2.1094 z m -5.625,-51.75 q -16.875,-52.875 -17.1563,-92.5313 v -27.8437 q 2.25,-28.9687 22.7813,-34.3125 20.5313,5.3438 22.7813,34.3125 v 27.8437 q -0.2813,39.6563 -17.1563,92.5313 z" />
    </g>
  </g>
  <path
     inkscape:connector-curvature="0"
     id="path340"
     d="m 26.435228,261.18981 c -3.93205,-0.95788 -8.397934,-4.38479 -9.503446,-7.29251 -0.794678,-2.09016 -0.442601,-6.13821 0.806456,-9.2723 C 19.02429,241.39808 143.34346,32.947409 148.82247,24.831094 c 1.84283,-2.729868 3.9584,-5.476616 4.70127,-6.103885 2.41684,-2.040736 5.30762,-3.11988 8.34221,-3.114187 5.02289,0.0094 8.36061,2.409252 12.91736,9.287605 3.24155,4.893073 128.17772,214.034263 129.93582,217.510533 4.3732,8.64704 2.5585,14.361 -5.77691,18.18981 l -2.11865,0.97318 -134.11017,0.0719 C 56.874063,261.70279 28.146212,261.60661 26.435228,261.18981 Z M 169.60464,250.03075 c 3.52411,-1.64914 5.97269,-4.10172 7.65962,-7.67217 1.25601,-2.65838 1.33086,-3.09487 1.31878,-7.69121 -0.0108,-4.11354 -0.16953,-5.26857 -1.0186,-7.41213 -1.21195,-3.05968 -4.74546,-6.7806 -7.781,-8.1937 -4.26915,-1.98735 -11.74062,-1.94728 -16.18365,0.0868 -6.4627,2.95872 -9.92775,10.2678 -8.71937,18.39238 0.59842,4.02344 1.60677,6.29658 3.89373,8.77764 3.64003,3.94895 7.47549,5.35952 13.98674,5.14389 3.49039,-0.11558 4.4692,-0.32032 6.84375,-1.4315 z m -0.0169,-56.78476 c 7.88501,-26.28528 12.07658,-46.65173 14.4105,-70.0193 0.34522,-3.45638 0.53045,-12.73113 0.53313,-26.69491 0.004,-20.787305 -0.0238,-21.524407 -0.9722,-25.814632 -2.90419,-13.137072 -8.95234,-21.256595 -18.49934,-24.834998 -3.55826,-1.333706 -4.43216,-1.225138 -9.1514,1.136918 -8.44854,4.228628 -13.91529,12.587623 -16.31382,24.944868 -1.48883,7.670441 -1.21138,42.227254 0.45909,57.179214 2.17147,19.43634 6.50363,39.73859 13.38211,62.71397 1.15349,3.85284 2.18143,7.24352 2.28432,7.53483 0.13745,0.38919 1.73583,0.52916 6.02664,0.52777 l 5.83956,-0.002 2.00141,-6.67184 z"
     style="fill:#FFD100;stroke-width:0.423729" />
</svg>
