<?xml version="1.0" encoding="UTF-8" standalone="no"?>
<svg
   xmlns:dc="http://purl.org/dc/elements/1.1/"
   xmlns:cc="http://creativecommons.org/ns#"
   xmlns:rdf="http://www.w3.org/1999/02/22-rdf-syntax-ns#"
   xmlns:svg="http://www.w3.org/2000/svg"
   xmlns="http://www.w3.org/2000/svg"
   xmlns:sodipodi="http://sodipodi.sourceforge.net/DTD/sodipodi-0.dtd"
   xmlns:inkscape="http://www.inkscape.org/namespaces/inkscape"
   inkscape:version="1.0beta2 (2b71d25, 2019-12-03)"
   sodipodi:docname="ANSI-Z535_black_filled_white.svg"
   viewBox="0 0 323.51999 276.79999"
   height="276.79999"
   width="323.51999"
   id="svg815"
   version="1.1">
  <metadata
     id="metadata821">
    <rdf:RDF>
      <cc:Work
         rdf:about="">
        <dc:format>image/svg+xml</dc:format>
        <dc:type
           rdf:resource="http://purl.org/dc/dcmitype/StillImage" />
        <dc:title />
      </cc:Work>
    </rdf:RDF>
  </metadata>
  <defs
     id="defs819" />
  <sodipodi:namedview
     inkscape:document-rotation="0"
     inkscape:current-layer="svg815"
     inkscape:window-maximized="1"
     inkscape:window-y="23"
     inkscape:window-x="0"
     inkscape:cy="139.46631"
     inkscape:cx="170.06826"
     inkscape:zoom="4.4364164"
     showgrid="false"
     id="namedview817"
     inkscape:window-height="1395"
     inkscape:window-width="2560"
     inkscape:pageshadow="2"
     inkscape:pageopacity="0"
     guidetolerance="10"
     gridtolerance="10"
     objecttolerance="10"
     borderopacity="1"
     bordercolor="#666666"
     pagecolor="#ffffff" />
  <path
     inkscape:connector-curvature="0"
     id="path4518"
     d="m 28.959999,262.17266 c -4.268351,-0.59618 -7.777472,-2.28831 -10.222784,-4.92954 -3.651222,-3.94376 -3.745016,-8.21779 -0.329579,-15.01834 1.944101,-3.87093 126.234884,-211.913774 129.895824,-217.424781 3.40911,-5.131909 5.37828,-7.137477 8.42507,-8.580806 1.9225,-0.910728 2.45796,-1.019194 5.03146,-1.019194 2.57351,0 3.10897,0.108466 5.03147,1.019194 3.81033,1.805031 5.92605,4.261232 11.52594,13.380806 9.95773,16.216447 125.75441,210.542161 126.99599,213.119991 2.05145,4.25935 2.63697,7.12356 2.00769,9.82106 -0.56497,2.42181 -1.25822,3.5784 -3.27631,5.46609 -1.76359,1.64963 -3.83905,2.79102 -6.6222,3.64184 -1.825,0.55791 -7.31726,0.58317 -134.70258,0.61969 -73.039993,0.0209 -133.231991,-0.0223 -133.759991,-0.096 z M 168.35318,250.26625 c 4.31127,-1.62818 7.77168,-5.20369 9.09724,-9.39984 0.64432,-2.03966 0.78957,-3.16102 0.78957,-6.0957 0,-5.71652 -1.14969,-8.94728 -4.33616,-12.18507 -3.30481,-3.35803 -6.32229,-4.47061 -12.14384,-4.47759 -3.06729,-0.004 -4.29074,0.13658 -6.07999,0.69703 -4.05102,1.26891 -7.89768,4.90797 -9.46901,8.95796 -0.56604,1.45895 -0.74258,2.70237 -0.85791,6.04261 -0.12842,3.71932 -0.06,4.4926 0.59146,6.68712 1.53658,5.176 6.23716,9.44538 11.45406,10.40335 2.67299,0.49083 8.94143,0.13041 10.95458,-0.62987 z m 0.0854,-54.51942 c 6.95413,-22.08019 12.14851,-45.59356 14.27951,-64.63905 1.17456,-10.49735 1.33431,-13.91692 1.50832,-32.286628 0.12392,-13.081513 0.0648,-19.51374 -0.20312,-22.08 -1.37524,-13.175215 -6.02632,-22.496805 -13.90591,-27.869938 -2.43702,-1.661811 -6.68431,-3.418694 -8.28202,-3.425833 -1.5874,-0.0071 -6.05056,1.813641 -8.46507,3.453302 -6.98006,4.740067 -11.27459,12.391475 -13.41516,23.901314 -0.5398,2.902455 -0.59464,5.044781 -0.58975,23.04 0.006,20.315043 0.15831,24.052813 1.44869,35.437983 2.16701,19.11966 7.30578,42.33575 14.27277,64.48201 l 1.13253,3.6 h 5.54062 5.54063 z"
     style="fill:#000000;stroke-width:0.31999999" />
  <path
     inkscape:connector-curvature="0"
     id="path64"
     d="m 156.11672,198.53827 c -0.4799,-1.25442 -3.57516,-11.56626 -4.78812,-15.95157 -5.32278,-19.2439 -8.98008,-37.79417 -10.73237,-54.43583 -0.93908,-8.91847 -1.01073,-11.18649 -1.01826,-32.233222 -0.008,-22.510029 -0.0772,-21.225774 1.47402,-27.364152 2.13079,-8.431614 5.96709,-14.71643 11.49961,-18.839229 2.76818,-2.062828 7.30543,-4.062415 9.21799,-4.062415 1.74582,0 5.44705,1.49253 8.13877,3.281982 0.85545,0.568701 2.36369,1.794418 3.35164,2.723814 5.16818,4.861852 8.32916,11.4413 10.10977,21.043063 l 0.60611,3.268403 -0.0121,19.610423 c -0.0128,20.737613 -0.10922,23.562923 -1.13511,33.247553 -2.11652,19.98035 -7.17803,43.33825 -14.45792,66.72052 l -1.08777,3.49381 -5.46381,0.0604 -5.4638,0.0604 -0.23868,-0.62389 z"
     style="fill:#FF8200;stroke-width:0.225407" />
  <path
     inkscape:connector-curvature="0"
     id="path66"
     d="m 157.71595,250.85839 c -2.81442,-0.55273 -5.54462,-2.02393 -7.68462,-4.14095 -2.59897,-2.57108 -3.99479,-5.2936 -4.47521,-8.72882 -0.24575,-1.7573 0.0502,-7.78783 0.4511,-9.19345 0.57424,-2.01313 1.85877,-4.03477 3.80833,-5.9937 2.22115,-2.23182 4.02537,-3.33125 6.64185,-4.04732 1.60338,-0.43881 2.19803,-0.47866 5.86058,-0.39275 3.71027,0.087 4.23581,0.15069 5.85492,0.7093 2.30732,0.79604 3.7568,1.77779 5.83252,3.95041 3.07915,3.22292 4.03623,6.04238 4.02595,11.86005 -0.007,3.92734 -0.26262,5.17336 -1.63803,7.98242 -1.72613,3.52537 -5.39748,6.56116 -9.09759,7.52269 -1.55757,0.40475 -8.2447,0.73431 -9.5798,0.47212 z"
     style="fill:#FF8200;stroke-width:0.225407" />
</svg>
