<?xml version="1.0" encoding="UTF-8" standalone="no"?>
<svg
   xmlns:dc="http://purl.org/dc/elements/1.1/"
   xmlns:cc="http://creativecommons.org/ns#"
   xmlns:rdf="http://www.w3.org/1999/02/22-rdf-syntax-ns#"
   xmlns:svg="http://www.w3.org/2000/svg"
   xmlns="http://www.w3.org/2000/svg"
   xmlns:sodipodi="http://sodipodi.sourceforge.net/DTD/sodipodi-0.dtd"
   xmlns:inkscape="http://www.inkscape.org/namespaces/inkscape"
   stroke-miterlimit="10"
   font-weight="normal"
   font-style="normal"
   font-size="12"
   version="1.1"
   id="svg9"
   sodipodi:docname="warning_sign_inkscape_white.svg"
   width="323.43741"
   height="276.75"
   style="font-style:normal;font-weight:normal;font-size:12px;font-family:Dialog;color-interpolation:auto;fill:#000000;fill-opacity:1;stroke:#000000;stroke-width:1;stroke-linecap:square;stroke-linejoin:miter;stroke-miterlimit:10;stroke-dasharray:none;stroke-dashoffset:0;stroke-opacity:1;color-rendering:auto;image-rendering:auto;shape-rendering:auto;text-rendering:auto"
   inkscape:version="0.92.2 (5c3e80d, 2017-08-06)">
  <metadata
     id="metadata13">
    <rdf:RDF>
      <cc:Work
         rdf:about="">
        <dc:format>image/svg+xml</dc:format>
        <dc:type
           rdf:resource="http://purl.org/dc/dcmitype/StillImage" />
        <dc:title />
      </cc:Work>
    </rdf:RDF>
  </metadata>
  <sodipodi:namedview
     pagecolor="#ffffff"
     bordercolor="#666666"
     borderopacity="1"
     objecttolerance="10"
     gridtolerance="10"
     guidetolerance="10"
     inkscape:pageopacity="0"
     inkscape:pageshadow="2"
     inkscape:window-width="2400"
     inkscape:window-height="1421"
     id="namedview11"
     showgrid="false"
     fit-margin-top="0"
     fit-margin-left="0"
     fit-margin-right="0"
     fit-margin-bottom="0"
     inkscape:zoom="2.36"
     inkscape:cx="-38.2188"
     inkscape:cy="347.125"
     inkscape:window-x="2391"
     inkscape:window-y="-9"
     inkscape:window-maximized="1"
     inkscape:current-layer="svg9" />
  <!--Unicode Character 'WARNING SIGN' (U+26A0)-->
  <defs
     id="genericDefs" />
  <g
     id="g7"
     transform="translate(-13.2188,-120.375)"
     style="fill:#ffffff;fill-opacity:1">
    <g
       id="g5"
       style="fill:#ffffff;fill-opacity:1">
      <path
         d="m 47.8125,397.125 q -13.2187,0 -20.25,-2.5312 -7.0313,-2.5313 -10.6875,-7.4532 -3.6562,-4.9218 -3.6562,-10.8281 0,-3.0937 1.5468,-8.5781 1.5469,-5.4844 6.0469,-13.9219 L 145.125,145.6875 q 3.9375,-6.4687 9.1406,-13.3594 5.2032,-6.8906 10.8282,-9.4219 5.625,-2.5312 9.8437,-2.5312 4.2187,0 9.8437,2.5312 5.625,2.5313 10.8282,9.4219 5.2031,6.8907 9.1406,13.3594 l 124.3125,208.125 q 4.5,8.4375 6.0469,13.9219 1.5468,5.4844 1.5468,8.5781 0,5.9063 -3.6562,10.8281 -3.6562,4.9219 -10.6875,7.4532 -7.0313,2.5312 -20.25,2.5312 z m 0,-14.625 h 254.25 q 7.5937,0 10.9687,-1.5469 3.375,-1.5469 5.625,-4.3593 2.25,-2.8126 1.8282,-7.0313 -0.4219,-4.2187 -4.3594,-10.6875 L 191.8125,150.75 q -2.8125,-4.6406 -5.2734,-8.1562 -2.461,-3.5157 -5.3438,-5.2735 -2.8828,-1.7578 -6.2578,-1.7578 -3.375,0 -6.2578,1.7578 -2.8828,1.7578 -5.3438,5.3438 -2.4609,3.5859 -5.2734,8.0859 L 33.75,358.875 q -3.9375,6.4688 -4.3594,10.6875 -0.4218,4.2187 1.8282,7.0313 2.25,2.8124 5.625,4.3593 3.375,1.5469 10.9687,1.5469 z m 127.125,-10.6875 q -5.3437,0 -9,-2.1094 -3.6563,-2.1093 -5.7656,-5.7656 -2.1094,-3.6563 -2.1094,-9 0,-5.3437 2.1094,-9 2.1093,-3.6563 5.7656,-5.7656 3.6563,-2.1094 9,-2.1094 5.3437,0 9,2.1094 3.6563,2.1093 5.7656,5.7656 2.1094,3.6563 2.1094,9 0,5.3437 -2.1094,9 -2.1093,3.6563 -5.7656,5.7656 -3.6563,2.1094 -9,2.1094 z m -5.625,-51.75 q -16.875,-52.875 -17.1563,-92.5313 v -27.8437 q 2.25,-28.9687 22.7813,-34.3125 20.5313,5.3438 22.7813,34.3125 v 27.8437 q -0.2813,39.6563 -17.1563,92.5313 z"
         id="path3"
         inkscape:connector-curvature="0"
         style="stroke:none;fill:#ffffff;fill-opacity:1" />
    </g>
  </g>
</svg>
