<?xml version="1.0" encoding="UTF-8" standalone="no"?>
<!-- Created with Inkscape (http://www.inkscape.org/) -->

<svg
   xmlns:dc="http://purl.org/dc/elements/1.1/"
   xmlns:cc="http://creativecommons.org/ns#"
   xmlns:rdf="http://www.w3.org/1999/02/22-rdf-syntax-ns#"
   xmlns:svg="http://www.w3.org/2000/svg"
   xmlns="http://www.w3.org/2000/svg"
   xmlns:sodipodi="http://sodipodi.sourceforge.net/DTD/sodipodi-0.dtd"
   xmlns:inkscape="http://www.inkscape.org/namespaces/inkscape"
   version="1.1"
   id="svg815"
   width="323.51999"
   height="276.79999"
   viewBox="0 0 323.51999 276.79999"
   sodipodi:docname="ansi-black.svg"
   inkscape:version="0.92.2 (5c3e80d, 2017-08-06)">
  <metadata
     id="metadata821">
    <rdf:RDF>
      <cc:Work
         rdf:about="">
        <dc:format>image/svg+xml</dc:format>
        <dc:type
           rdf:resource="http://purl.org/dc/dcmitype/StillImage" />
        <dc:title></dc:title>
      </cc:Work>
    </rdf:RDF>
  </metadata>
  <defs
     id="defs819" />
  <sodipodi:namedview
     pagecolor="#ffffff"
     bordercolor="#666666"
     borderopacity="1"
     objecttolerance="10"
     gridtolerance="10"
     guidetolerance="10"
     inkscape:pageopacity="0"
     inkscape:pageshadow="2"
     inkscape:window-width="2400"
     inkscape:window-height="1421"
     id="namedview817"
     showgrid="false"
     inkscape:zoom="4.4364164"
     inkscape:cx="170.06826"
     inkscape:cy="139.46631"
     inkscape:window-x="2391"
     inkscape:window-y="-9"
     inkscape:window-maximized="1"
     inkscape:current-layer="svg815" />
  <path
     style="fill:#000000;stroke-width:0.31999999"
     d="m 28.959999,262.17266 c -4.268351,-0.59618 -7.777472,-2.28831 -10.222784,-4.92954 -3.651222,-3.94376 -3.745016,-8.21779 -0.329579,-15.01834 1.944101,-3.87093 126.234884,-211.913774 129.895824,-217.424781 3.40911,-5.131909 5.37828,-7.137477 8.42507,-8.580806 1.9225,-0.910728 2.45796,-1.019194 5.03146,-1.019194 2.57351,0 3.10897,0.108466 5.03147,1.019194 3.81033,1.805031 5.92605,4.261232 11.52594,13.380806 9.95773,16.216447 125.75441,210.542161 126.99599,213.119991 2.05145,4.25935 2.63697,7.12356 2.00769,9.82106 -0.56497,2.42181 -1.25822,3.5784 -3.27631,5.46609 -1.76359,1.64963 -3.83905,2.79102 -6.6222,3.64184 -1.825,0.55791 -7.31726,0.58317 -134.70258,0.61969 -73.039993,0.0209 -133.231991,-0.0223 -133.759991,-0.096 z M 168.35318,250.26625 c 4.31127,-1.62818 7.77168,-5.20369 9.09724,-9.39984 0.64432,-2.03966 0.78957,-3.16102 0.78957,-6.0957 0,-5.71652 -1.14969,-8.94728 -4.33616,-12.18507 -3.30481,-3.35803 -6.32229,-4.47061 -12.14384,-4.47759 -3.06729,-0.004 -4.29074,0.13658 -6.07999,0.69703 -4.05102,1.26891 -7.89768,4.90797 -9.46901,8.95796 -0.56604,1.45895 -0.74258,2.70237 -0.85791,6.04261 -0.12842,3.71932 -0.06,4.4926 0.59146,6.68712 1.53658,5.176 6.23716,9.44538 11.45406,10.40335 2.67299,0.49083 8.94143,0.13041 10.95458,-0.62987 z m 0.0854,-54.51942 c 6.95413,-22.08019 12.14851,-45.59356 14.27951,-64.63905 1.17456,-10.49735 1.33431,-13.91692 1.50832,-32.286628 0.12392,-13.081513 0.0648,-19.51374 -0.20312,-22.08 -1.37524,-13.175215 -6.02632,-22.496805 -13.90591,-27.869938 -2.43702,-1.661811 -6.68431,-3.418694 -8.28202,-3.425833 -1.5874,-0.0071 -6.05056,1.813641 -8.46507,3.453302 -6.98006,4.740067 -11.27459,12.391475 -13.41516,23.901314 -0.5398,2.902455 -0.59464,5.044781 -0.58975,23.04 0.006,20.315043 0.15831,24.052813 1.44869,35.437983 2.16701,19.11966 7.30578,42.33575 14.27277,64.48201 l 1.13253,3.6 h 5.54062 5.54063 z"
     id="path4518"
     inkscape:connector-curvature="0" />
</svg>
