<?xml version="1.0" encoding="UTF-8" standalone="no"?>
<svg
   xmlns:dc="http://purl.org/dc/elements/1.1/"
   xmlns:cc="http://creativecommons.org/ns#"
   xmlns:rdf="http://www.w3.org/1999/02/22-rdf-syntax-ns#"
   xmlns:svg="http://www.w3.org/2000/svg"
   xmlns="http://www.w3.org/2000/svg"
   xmlns:sodipodi="http://sodipodi.sourceforge.net/DTD/sodipodi-0.dtd"
   xmlns:inkscape="http://www.inkscape.org/namespaces/inkscape"
   inkscape:version="1.0beta2 (2b71d25, 2019-12-03)"
   sodipodi:docname="Zeichnung.svg"
   width="109.84037mm"
   height="95.893997mm"
   viewBox="0 0 109.84037 95.893997"
   version="1.1"
   id="svg16">
  <sodipodi:namedview
     inkscape:current-layer="svg16"
     inkscape:window-maximized="0"
     inkscape:window-y="23"
     inkscape:window-x="0"
     inkscape:cy="561.25984"
     inkscape:cx="396.85134"
     inkscape:zoom="0.92915965"
     fit-margin-bottom="0"
     fit-margin-right="0"
     fit-margin-left="0"
     fit-margin-top="0"
     showgrid="false"
     id="namedview146"
     inkscape:window-height="1274"
     inkscape:window-width="1547"
     inkscape:pageshadow="2"
     inkscape:pageopacity="0"
     guidetolerance="10"
     gridtolerance="10"
     objecttolerance="10"
     borderopacity="1"
     inkscape:document-rotation="0"
     bordercolor="#666666"
     pagecolor="#ffffff" />
  <defs
     id="defs10" />
  <metadata
     id="metadata13">
    <rdf:RDF>
      <cc:Work
         rdf:about="">
        <dc:format>image/svg+xml</dc:format>
        <dc:type
           rdf:resource="http://purl.org/dc/dcmitype/StillImage" />
        <dc:title></dc:title>
      </cc:Work>
    </rdf:RDF>
  </metadata>
  <g
     transform="translate(2.5e-4)"
     id="layer1">
    <path
       inkscape:connector-curvature="0"
       id="path140"
       d="M 109.441,91.498 57.466,1.465 C 56.936,0.549 55.964,0 54.92,0 53.876,0 52.905,0.568 52.374,1.465 L 0.398,91.498 c -0.531,0.915 -0.531,2.032 0,2.93 0.531,0.916 1.502,1.466 2.546,1.466 h 103.953 c 1.043,0 2.015,-0.566 2.545,-1.466 0.531,-0.916 0.531,-2.032 -10e-4,-2.93 z"
       fill="#010101" />
    <path
       inkscape:connector-curvature="0"
       d="m 61.878,79.6 c 0,3.832 -3.106,6.939 -6.938,6.939 -3.833,0 -6.94,-3.107 -6.94,-6.939 0,-3.833 3.107,-6.938 6.94,-6.938 3.831,-0.003 6.938,3.105 6.938,6.938 z"
       fill="#FFFFFF"
       id="path1995_1_" />
    <path
       inkscape:connector-curvature="0"
       d="m 54.939,30.878 c -3.782,0 -6.826,3.109 -6.826,6.97 l 2.018,24.415 c 0.385,3.158 0.714,4.948 2.018,5.789 0.851,0.389 1.794,0.607 2.79,0.607 0.99,0 1.93,-0.217 2.777,-0.603 1.311,-0.84 1.645,-2.631 2.03,-5.796 l 2.019,-24.415 c -10e-4,-3.858 -3.044,-6.967 -6.826,-6.967 z"
       fill="#FFFFFF"
       id="rect1997_1_" />
  </g>
</svg>
